<svg width="63" height="66" viewBox="0 0 63 66" fill="none" xmlns="http://www.w3.org/2000/svg">
<g filter="url(#filter0_d_329_230)">
<g opacity="0.86" filter="url(#filter1_d_329_230)">
<path d="M47.8125 36.3906C47.8125 37.4506 47.4982 38.4868 46.9093 39.3681C46.3204 40.2495 45.4834 40.9364 44.5041 41.342C43.5248 41.7477 42.4472 41.8538 41.4076 41.647C40.3679 41.4402 39.413 40.9298 38.6635 40.1803C37.914 39.4308 37.4035 38.4758 37.1967 37.4362C36.9899 36.3966 37.0961 35.319 37.5017 34.3397C37.9074 33.3604 38.5943 32.5234 39.4756 31.9345C40.357 31.3456 41.3931 31.0312 42.4531 31.0312C43.8745 31.0312 45.2377 31.5959 46.2428 32.601C47.2479 33.6061 47.8125 34.9692 47.8125 36.3906ZM17.9531 37.1563C16.8931 37.1563 15.857 37.4706 14.9756 38.0595C14.0943 38.6484 13.4073 39.4854 13.0017 40.4647C12.5961 41.444 12.4899 42.5216 12.6967 43.5612C12.9035 44.6008 13.414 45.5558 14.1635 46.3053C14.913 47.0548 15.8679 47.5652 16.9076 47.772C17.9472 47.9788 19.0248 47.8727 20.0041 47.467C20.9834 47.0614 21.8204 46.3745 22.4093 45.4931C22.9982 44.6118 23.3125 43.5756 23.3125 42.5156C23.3125 41.0942 22.7479 39.7311 21.7428 38.726C20.7377 37.7209 19.3745 37.1563 17.9531 37.1563Z" fill="#FFFB00"/>
</g>
<path d="M46.2257 30.7469L46.3813 30.8508V30.6637V26.4375C46.3813 26.0579 46.532 25.6939 46.8005 25.4255C47.0689 25.157 47.4329 25.0063 47.8125 25.0063C48.1921 25.0063 48.5561 25.157 48.8246 25.4255C49.093 25.6939 49.2438 26.0579 49.2438 26.4375V36.3906C49.2443 37.9046 48.7389 39.3754 47.8078 40.5692C46.8768 41.7631 45.5735 42.6115 44.105 42.9798C42.6365 43.3481 41.087 43.2151 39.7028 42.6019C38.3185 41.9887 37.1789 40.9305 36.4649 39.5954C35.751 38.2603 35.5037 36.725 35.7623 35.2332C36.0209 33.7415 36.7706 32.379 37.8923 31.3621C39.014 30.3453 40.4433 29.7324 41.9532 29.621C43.463 29.5095 44.9669 29.9058 46.2257 30.7469ZM24.8195 26.0055L24.7438 26.0245V26.1025V42.5156C24.7443 44.0296 24.2389 45.5004 23.3078 46.6942C22.3768 47.8881 21.0735 48.7365 19.605 49.1048C18.1365 49.4731 16.587 49.3401 15.2028 48.7269C13.8185 48.1137 12.6789 47.0555 11.9649 45.7204C11.251 44.3853 11.0037 42.85 11.2623 41.3582C11.5209 39.8665 12.2706 38.504 13.3923 37.4871C14.514 36.4703 15.9433 35.8574 17.4532 35.746C18.963 35.6345 20.4669 36.0308 21.7257 36.8719L21.8813 36.9758V36.7887V15.7188C21.8813 15.7188 21.8813 15.7188 21.8813 15.7188C21.8813 15.3996 21.988 15.0896 22.1845 14.8381C22.3809 14.5865 22.6558 14.4078 22.9654 14.3305L22.9444 14.2464L22.9654 14.3305L33.6825 11.6512C33.6828 11.6511 33.683 11.651 33.6833 11.651C34.0487 11.5665 34.4327 11.6288 34.7527 11.8245C35.0728 12.0204 35.3033 12.3342 35.3943 12.6983C35.4853 13.0624 35.4297 13.4478 35.2393 13.7713C35.0491 14.0945 34.7396 14.3302 34.3775 14.4276C34.3772 14.4276 34.3769 14.4277 34.3767 14.4278L24.8195 16.818L24.7438 16.837V16.915V22.9443V23.0724L24.868 23.0414L38.2763 19.6902C38.2765 19.6902 38.2768 19.6901 38.2771 19.69C38.6425 19.6055 39.0265 19.6678 39.3464 19.8636C39.6666 20.0594 39.897 20.3732 39.9881 20.7374C40.0791 21.1015 40.0234 21.4868 39.8331 21.8103C39.6429 22.1336 39.3334 22.3692 38.9712 22.4666C38.9709 22.4667 38.9707 22.4668 38.9704 22.4669L24.8195 26.0055ZM46.3813 36.3906C46.3813 35.6137 46.1509 34.8543 45.7192 34.2083C45.2876 33.5623 44.6741 33.0588 43.9564 32.7615C43.2386 32.4642 42.4488 32.3864 41.6868 32.538C40.9248 32.6895 40.2249 33.0637 39.6755 33.613C39.1262 34.1624 38.752 34.8623 38.6005 35.6243C38.4489 36.3863 38.5267 37.1761 38.824 37.8939C39.1213 38.6116 39.6248 39.2251 40.2708 39.6567C40.9168 40.0884 41.6762 40.3187 42.4531 40.3187C43.4949 40.3187 44.4941 39.9049 45.2307 39.1682C45.9674 38.4316 46.3813 37.4324 46.3813 36.3906ZM21.8813 42.5156C21.8813 41.7387 21.6509 40.9793 21.2192 40.3333C20.7876 39.6873 20.1741 39.1838 19.4564 38.8865C18.7386 38.5892 17.9488 38.5114 17.1868 38.663C16.4248 38.8145 15.7249 39.1887 15.1755 39.738C14.6262 40.2874 14.252 40.9873 14.1005 41.7493C13.9489 42.5113 14.0267 43.3011 14.324 44.0189C14.6213 44.7366 15.1248 45.3501 15.7708 45.7817C16.4168 46.2134 17.1762 46.4437 17.9531 46.4437C18.9949 46.4437 19.9941 46.0299 20.7307 45.2932C21.4674 44.5566 21.8813 43.5574 21.8813 42.5156Z" fill="white" stroke="black" stroke-width="0.2"/>
</g>
<g filter="url(#filter2_d_329_230)">
<path d="M45.324 19.1976C44.9109 19.3095 44.4704 19.2557 44.0964 19.0476C43.7224 18.8395 43.4445 18.4936 43.3218 18.0835L43.1382 17.4395C42.9571 16.7724 42.9833 16.0685 43.2137 15.4188C43.444 14.7824 43.856 14.2276 44.3987 13.8232L44.6778 13.5415C44.7356 13.4421 44.773 13.3321 44.7878 13.2181C44.779 13.1083 44.7494 13.0044 44.699 12.9065C44.6854 12.7913 44.6535 12.6791 44.6042 12.5741C44.4882 12.472 44.3517 12.396 44.2038 12.3513C44.0255 12.2878 43.8355 12.2641 43.647 12.2819C43.4586 12.2997 43.2764 12.3586 43.1131 12.4543C42.9499 12.5501 42.8096 12.6805 42.7021 12.8362C42.5946 12.992 42.5226 13.1695 42.491 13.3561C42.4656 13.5727 42.3967 13.782 42.2885 13.9714C42.1802 14.1608 42.0348 14.3264 41.861 14.4582C41.6872 14.5901 41.4886 14.6855 41.2771 14.7387C41.0655 14.7919 40.8454 14.8018 40.6299 14.7679C40.4144 14.734 40.208 14.6569 40.023 14.5413C39.838 14.4256 39.6783 14.2738 39.5534 14.095C39.4285 13.9161 39.3411 13.7139 39.2962 13.5004C39.2514 13.2869 39.2502 13.0665 39.2926 12.8526C39.454 11.8672 39.9345 10.9622 40.6603 10.2765C41.3861 9.59075 42.3169 9.1623 43.3098 9.05696C43.9795 8.98306 44.6572 9.06682 45.2888 9.30155C45.8938 9.50429 46.4428 9.84598 46.8919 10.2992C47.341 10.7525 47.6775 11.3047 47.8746 11.9115C48.0369 12.465 48.0879 13.0457 48.0249 13.6208C47.9588 14.1871 47.7691 14.732 47.469 15.2168C47.1767 15.7045 46.7815 16.1226 46.3139 16.4445L46.5211 17.1717C46.5818 17.3834 46.5987 17.6052 46.5707 17.8237C46.5428 18.0422 46.4705 18.2526 46.3585 18.4422C46.2465 18.6318 46.0969 18.7966 45.9191 18.9265C45.7412 19.0563 45.5387 19.1486 45.324 19.1976ZM46.2891 22.7412C45.8758 22.859 45.4327 22.8078 45.0572 22.5988C44.6818 22.3899 44.4046 22.0404 44.2869 21.6271C44.1691 21.2139 44.2203 20.7708 44.4292 20.3953C44.6381 20.0198 44.9876 19.7427 45.4009 19.6249C45.8141 19.5071 46.2572 19.5583 46.6327 19.7673C47.0082 19.9762 47.2853 20.3257 47.4031 20.7389C47.5209 21.1522 47.4697 21.5953 47.2608 21.9708C47.0519 22.3463 46.7023 22.6234 46.2891 22.7412Z" fill="#FFFB00"/>
<path d="M45.3018 19.1001L45.3018 19.1L45.2979 19.1011C44.9099 19.2062 44.4963 19.1556 44.1451 18.9602C43.794 18.7649 43.5331 18.4403 43.4178 18.0555L43.2346 17.4127C43.0589 16.7654 43.0845 16.0827 43.3078 15.4526C43.5315 14.8347 43.9315 14.296 44.4584 13.9034L44.4645 13.8989L44.4697 13.8936L44.7488 13.6118L44.7578 13.6028L44.7642 13.5917C44.8288 13.4808 44.8705 13.3582 44.887 13.2309L44.8883 13.2205L44.8875 13.2101C44.8781 13.0932 44.8475 12.9819 44.7961 12.877C44.7802 12.7574 44.746 12.6409 44.6948 12.5316L44.6859 12.5127L44.6703 12.499C44.5441 12.388 44.3958 12.3053 44.2351 12.2563C44.0437 12.1885 43.8398 12.1632 43.6376 12.1823C43.4347 12.2015 43.2384 12.2649 43.0625 12.3681C42.8867 12.4712 42.7356 12.6117 42.6198 12.7795C42.504 12.9473 42.4264 13.1384 42.3924 13.3394L42.3923 13.3394L42.3917 13.3444C42.3679 13.5477 42.3032 13.7441 42.2016 13.9218C42.1001 14.0995 41.9637 14.2549 41.8006 14.3786C41.6375 14.5023 41.4512 14.5918 41.2527 14.6417C41.0542 14.6916 40.8476 14.701 40.6454 14.6691C40.4432 14.6373 40.2496 14.565 40.076 14.4565C39.9025 14.348 39.7526 14.2055 39.6354 14.0377C39.5182 13.8699 39.4362 13.6801 39.3941 13.4798C39.3521 13.2795 39.3509 13.0728 39.3907 12.872L39.3907 12.872L39.3912 12.8687C39.5492 11.905 40.0191 11.0198 40.729 10.3492C41.4388 9.67848 42.3492 9.25944 43.3203 9.15641L43.3207 9.15636C43.975 9.08417 44.637 9.16599 45.254 9.39529L45.254 9.39534L45.257 9.39637C45.8472 9.59414 46.3828 9.92746 46.8209 10.3696C47.2586 10.8114 47.5868 11.3496 47.7791 11.941C47.9373 12.4813 47.987 13.0481 47.9255 13.6095C47.8611 14.1611 47.6763 14.6919 47.3839 15.1642L47.3839 15.1642L47.3832 15.1654C47.0984 15.6406 46.7131 16.0482 46.2572 16.3622L46.198 16.4029L46.2177 16.472L46.425 17.1991L46.425 17.1992C46.4819 17.3979 46.4978 17.606 46.4715 17.811C46.4453 18.016 46.3775 18.2134 46.2724 18.3913C46.1673 18.5692 46.027 18.7239 45.8601 18.8457C45.6932 18.9676 45.5032 19.0541 45.3018 19.1001ZM46.2617 22.645C45.8739 22.7555 45.4582 22.7075 45.1059 22.5114C44.7536 22.3154 44.4935 21.9875 44.383 21.5997C44.2725 21.212 44.3206 20.7962 44.5166 20.4439C44.7126 20.0916 45.0406 19.8316 45.4283 19.7211C45.816 19.6106 46.2318 19.6586 46.5841 19.8546C46.9364 20.0507 47.1964 20.3786 47.3069 20.7664C47.4175 21.1541 47.3694 21.5698 47.1734 21.9222C46.9774 22.2745 46.6494 22.5345 46.2617 22.645Z" stroke="#030303" stroke-width="0.2"/>
</g>
<defs>
<filter id="filter0_d_329_230" x="4.06249" y="1.0625" width="55.3438" height="55.3463" filterUnits="userSpaceOnUse" color-interpolation-filters="sRGB">
<feFlood flood-opacity="0" result="BackgroundImageFix"/>
<feColorMatrix in="SourceAlpha" type="matrix" values="0 0 0 0 0 0 0 0 0 0 0 0 0 0 0 0 0 0 127 0" result="hardAlpha"/>
<feOffset/>
<feGaussianBlur stdDeviation="3.5"/>
<feComposite in2="hardAlpha" operator="out"/>
<feColorMatrix type="matrix" values="0 0 0 0 1 0 0 0 0 1 0 0 0 0 1 0 0 0 1 0"/>
<feBlend mode="normal" in2="BackgroundImageFix" result="effect1_dropShadow_329_230"/>
<feBlend mode="normal" in="SourceGraphic" in2="effect1_dropShadow_329_230" result="shape"/>
</filter>
<filter id="filter1_d_329_230" x="0.69375" y="25.1313" width="59.0187" height="40.6437" filterUnits="userSpaceOnUse" color-interpolation-filters="sRGB">
<feFlood flood-opacity="0" result="BackgroundImageFix"/>
<feColorMatrix in="SourceAlpha" type="matrix" values="0 0 0 0 0 0 0 0 0 0 0 0 0 0 0 0 0 0 127 0" result="hardAlpha"/>
<feOffset dy="6"/>
<feGaussianBlur stdDeviation="5.95"/>
<feComposite in2="hardAlpha" operator="out"/>
<feColorMatrix type="matrix" values="0 0 0 0 0.866667 0 0 0 0 0.858824 0 0 0 0 0.329412 0 0 0 1 0"/>
<feBlend mode="normal" in2="BackgroundImageFix" result="effect1_dropShadow_329_230"/>
<feBlend mode="normal" in="SourceGraphic" in2="effect1_dropShadow_329_230" result="shape"/>
</filter>
<filter id="filter2_d_329_230" x="30.3617" y="0.130884" width="26.5894" height="31.5723" filterUnits="userSpaceOnUse" color-interpolation-filters="sRGB">
<feFlood flood-opacity="0" result="BackgroundImageFix"/>
<feColorMatrix in="SourceAlpha" type="matrix" values="0 0 0 0 0 0 0 0 0 0 0 0 0 0 0 0 0 0 127 0" result="hardAlpha"/>
<feOffset/>
<feGaussianBlur stdDeviation="4.45"/>
<feComposite in2="hardAlpha" operator="out"/>
<feColorMatrix type="matrix" values="0 0 0 0 1 0 0 0 0 0.985401 0 0 0 0 0 0 0 0 1 0"/>
<feBlend mode="normal" in2="BackgroundImageFix" result="effect1_dropShadow_329_230"/>
<feBlend mode="normal" in="SourceGraphic" in2="effect1_dropShadow_329_230" result="shape"/>
</filter>
</defs>
</svg>
