<svg width="50" height="50" viewBox="0 0 50 50" fill="none" xmlns="http://www.w3.org/2000/svg">
<path d="M22.9167 27.0833C23.5069 27.0833 24.0021 26.8833 24.4021 26.4833C24.8021 26.0833 25.0014 25.5889 25 25C24.9986 24.4111 24.7986 23.9167 24.4 23.5167C24.0014 23.1167 23.5069 22.9167 22.9167 22.9167C22.3264 22.9167 21.8319 23.1167 21.4333 23.5167C21.0347 23.9167 20.8347 24.4111 20.8333 25C20.8319 25.5889 21.0319 26.084 21.4333 26.4854C21.8347 26.8868 22.3292 27.0861 22.9167 27.0833ZM14.5833 43.75V39.5833L27.0833 37.5V12.4479L14.5833 10.4167V6.25L31.25 8.95833V40.9375L14.5833 43.75ZM6.25 43.75V39.5833H10.4167V6.25H39.5833V39.5833H43.75V43.75H6.25ZM14.5833 39.5833H35.4167V10.4167H14.5833V39.5833Z" fill="black"/>
</svg>
