<svg width="60" height="62" viewBox="0 0 60 62" fill="none" xmlns="http://www.w3.org/2000/svg">
<path d="M12.5 22.25V19.75C12.5 15.1087 14.3437 10.6575 17.6256 7.37563C20.9075 4.09374 25.3587 2.25 30 2.25C34.6413 2.25 39.0925 4.09374 42.3744 7.37563C45.6563 10.6575 47.5 15.1087 47.5 19.75C47.4996 22.9511 46.2281 26.021 43.965 28.285L37.93 34.32C37.0011 35.2487 36.2642 36.3513 35.7614 37.5648C35.2587 38.7783 35 40.079 35 41.3925V42.25H25V39.32C25 34.795 26.8 30.4525 30 27.25L33.2325 24.0175C33.7945 23.4582 34.24 22.7931 34.5434 22.0607C34.8467 21.3282 35.0019 20.5428 35 19.75C35 18.4239 34.4732 17.1521 33.5355 16.2145C32.5979 15.2768 31.3261 14.75 30 14.75C28.6739 14.75 27.4021 15.2768 26.4645 16.2145C25.5268 17.1521 25 18.4239 25 19.75V22.25H12.5ZM30 49.75C31.3261 49.75 32.5979 50.2768 33.5355 51.2145C34.4732 52.1522 35 53.4239 35 54.75C35 56.0761 34.4732 57.3479 33.5355 58.2855C32.5979 59.2232 31.3261 59.75 30 59.75C28.6739 59.75 27.4021 59.2232 26.4645 58.2855C25.5268 57.3479 25 56.0761 25 54.75C25 53.4239 25.5268 52.1522 26.4645 51.2145C27.4021 50.2768 28.6739 49.75 30 49.75Z" stroke="black" stroke-width="3"/>
</svg>
